<svg width="141" height="64" viewBox="0 0 141 64" fill="none" xmlns="http://www.w3.org/2000/svg">
<g id="Group 8309">
<path id="Vector" d="M69.907 45.4872C70.376 46.038 70.9287 46.5117 71.5448 46.8909C72.0289 47.1863 72.5827 47.3478 73.1497 47.3588C73.5921 47.3769 74.026 47.2339 74.371 46.9564C74.5222 46.8349 74.6432 46.68 74.7244 46.5038C74.8056 46.3276 74.8448 46.1349 74.8389 45.941C74.8512 45.7475 74.8206 45.5537 74.7494 45.3734C74.6783 45.193 74.5682 45.0306 74.4272 44.8976C73.8589 44.5238 73.2231 44.2647 72.5555 44.1349C71.2172 43.7792 70.272 43.3066 69.7152 42.7311C69.1363 42.0791 68.8385 41.2247 68.887 40.3541C68.8656 39.7595 68.9714 39.1673 69.1974 38.617C69.4233 38.0666 69.7642 37.5709 70.1972 37.1629C71.1224 36.3194 72.3433 35.8755 73.5943 35.9276C74.3181 35.9242 75.0385 36.0266 75.7327 36.2317C76.4161 36.444 77.0631 36.7596 77.6511 37.1675L76.4813 39.8394C76.0943 39.5022 75.657 39.2275 75.1852 39.0252C74.7674 38.849 74.3191 38.7567 73.8657 38.7538C73.4786 38.7375 73.097 38.8493 72.7801 39.072C72.6486 39.165 72.5415 39.2885 72.4682 39.4319C72.3949 39.5754 72.3574 39.7344 72.359 39.8955C72.353 40.0515 72.3829 40.2068 72.4461 40.3495C72.5094 40.4923 72.6044 40.6187 72.7239 40.7191C73.1515 40.9994 73.6275 41.1977 74.1277 41.304L74.2961 41.3507C75.8122 41.7625 76.8135 42.207 77.2908 42.703C77.6193 43.0464 77.8699 43.4566 78.0255 43.9056C78.199 44.4081 78.2845 44.9368 78.2781 45.4684C78.3076 46.1169 78.1976 46.764 77.9554 47.3663C77.7132 47.9685 77.3446 48.5117 76.8744 48.9591C75.8246 49.8743 74.4612 50.3472 73.0702 50.2787C72.1822 50.2954 71.2996 50.1363 70.4732 49.8107C69.6342 49.4496 68.8707 48.9337 68.2225 48.29L69.907 45.4872ZM40.6293 44.8789V42.0152H47.9335C47.9335 42.1088 47.9335 42.2117 47.9335 42.324C47.9335 42.4363 47.9335 42.5954 47.9335 42.8153C47.9335 45.1643 47.3096 46.9845 46.0618 48.276C44.8141 49.5674 43.0703 50.2147 40.8305 50.2178C39.8257 50.2357 38.8262 50.0676 37.8826 49.7218C37.0139 49.3833 36.2274 48.8633 35.5758 48.1964C34.9239 47.5345 34.4115 46.7485 34.0691 45.8849C33.7126 44.992 33.5315 44.0388 33.5356 43.0774C33.5246 42.1162 33.7027 41.1623 34.0597 40.2699C34.4176 39.402 34.9487 38.6163 35.6204 37.9606C36.2922 37.3049 37.0906 36.7931 37.9668 36.4563C38.8812 36.1085 39.8523 35.9339 40.8305 35.9416C42.0595 35.9183 43.276 36.1912 44.3773 36.7371C45.4277 37.2818 46.3204 38.0875 46.9696 39.0767L43.7971 40.6442C43.4591 40.1571 43.0141 39.7538 42.4963 39.465C41.9975 39.2025 41.4409 39.069 40.8773 39.0767C40.3835 39.0534 39.8909 39.1414 39.4357 39.3342C38.9805 39.5269 38.5745 39.8195 38.2476 40.1903C37.6232 41.086 37.2884 42.1516 37.2884 43.2435C37.2884 44.3353 37.6232 45.401 38.2476 46.2967C38.5729 46.6696 38.9786 46.964 39.4341 47.1577C39.8895 47.3514 40.383 47.4394 40.8773 47.415C41.719 47.4449 42.5479 47.202 43.2403 46.7225C43.544 46.5101 43.7997 46.2362 43.9908 45.9186C44.1818 45.601 44.304 45.2467 44.3493 44.8789H40.6293Z" fill="#FBBA00"/>
<path id="Vector_2" d="M133.938 35.7214L140.143 49.8994H138.383L136.61 45.7209H131.299L129.516 49.8994H127.757L133.938 35.7214ZM133.938 39.3057L131.767 44.3218H136.109L133.938 39.3057ZM124.711 49.8994V36.2549H126.33V49.8994H124.711ZM110.856 49.8994V36.2549H113.476C114.846 36.2094 116.216 36.3066 117.566 36.545C118.321 36.7228 119.03 37.0576 119.648 37.5276C120.433 38.1303 121.047 38.9269 121.431 39.8391C122.232 41.9218 122.232 44.2278 121.431 46.3105C121.09 47.114 120.568 47.8277 119.906 48.396C119.243 48.9642 118.458 49.3715 117.612 49.5859C116.442 49.8156 115.249 49.913 114.056 49.876H110.851L110.856 49.8994ZM112.493 48.374H113.518C114.683 48.4107 115.849 48.3371 117 48.1541C117.589 48.036 118.143 47.7794 118.614 47.4054C119.186 46.9245 119.624 46.3039 119.887 45.6039C120.467 43.971 120.467 42.188 119.887 40.555C119.616 39.8597 119.175 39.2435 118.604 38.7629C118.129 38.3802 117.569 38.117 116.971 37.9955C115.828 37.805 114.668 37.7282 113.509 37.7663H112.475L112.493 48.374ZM96.0694 49.8994V35.7214L106.031 46.624V36.2549H107.576V50.4282L97.5996 39.666V49.8994H96.0694ZM91.1516 49.8994V36.2549H92.7753V49.8994H91.1516ZM82.3547 49.8994V39.4788H79.2992V36.2549H89.1255V39.4788H86.0747V49.8994H82.3547ZM62.5523 49.8994V36.2549H66.2957V49.8994H62.5523ZM53.7133 42.7075H54.4012C55.0147 42.7562 55.6281 42.6122 56.1559 42.2957C56.3457 42.1435 56.4954 41.947 56.5916 41.7234C56.6879 41.4999 56.7279 41.2562 56.708 41.0136C56.7358 40.7473 56.704 40.4782 56.615 40.2257C56.526 39.9732 56.3819 39.7437 56.1933 39.5537C55.6807 39.2162 55.0686 39.0628 54.4573 39.1185H53.7133V42.7075ZM50.2227 49.8994V36.2549H54.1158C55.1792 36.2195 56.2435 36.2901 57.2929 36.4654C57.8548 36.5862 58.3844 36.8255 58.8464 37.1673C59.3356 37.5328 59.7251 38.0156 59.9788 38.5711C60.2456 39.1734 60.3797 39.8261 60.3718 40.4849C60.4141 41.4062 60.14 42.3143 59.5951 43.0584C59.017 43.7525 58.211 44.2185 57.321 44.3733L61.041 49.8994H56.8297L53.6993 44.5558V49.8994H50.2227Z" fill="#EC6608"/>
<path id="Vector_3" d="M6.99072 59.7724C6.83795 58.957 6.40494 58.2207 5.76664 57.6909C5.12833 57.1611 4.3249 56.8711 3.49536 56.8711C2.66582 56.8711 1.86238 57.1611 1.22408 57.6909C0.585777 58.2207 0.152774 58.957 0 59.7724H6.99072Z" fill="#FBBA00"/>
<path id="Vector_4" d="M0 61.209C0.179893 62.0016 0.623804 62.7095 1.25892 63.2166C1.89403 63.7237 2.68263 63.9999 3.49536 63.9999C4.30809 63.9999 5.0967 63.7237 5.73181 63.2166C6.36692 62.7095 6.81083 62.0016 6.99072 61.209H0Z" fill="#EC6608"/>
<path id="Vector_5" d="M30.4648 4.4176C30.6368 5.22074 31.0791 5.94058 31.7177 6.45699C32.3564 6.9734 33.1529 7.25512 33.9742 7.25512C34.7956 7.25512 35.5921 6.9734 36.2308 6.45699C36.8694 5.94058 37.3117 5.22074 37.4836 4.4176H30.4648Z" fill="#EC6608"/>
<path id="Vector_6" d="M37.4622 2.9812C37.3258 2.14882 36.898 1.392 36.2551 0.845909C35.6123 0.299817 34.7962 0 33.9528 0C33.1093 0 32.2932 0.299817 31.6504 0.845909C31.0075 1.392 30.5797 2.14882 30.4434 2.9812H37.4622Z" fill="#FBBA00"/>
<path id="Vector_7" d="M27.5091 48.3228H10.7342C10.1758 48.3228 9.64018 48.101 9.2453 47.7061C8.85041 47.3112 8.62857 46.7756 8.62857 46.2172C8.62857 45.6587 8.85041 45.1231 9.2453 44.7282C9.64018 44.3334 10.1758 44.1115 10.7342 44.1115H27.5793C28.1417 44.1076 28.6881 43.9238 29.1386 43.5871C29.589 43.2503 29.9199 42.7782 30.0827 42.2398H10.7342C10.2026 42.2216 9.67274 42.3105 9.17622 42.5013C8.67971 42.6921 8.22668 42.981 7.84414 43.3506C7.46161 43.7202 7.15739 44.163 6.94961 44.6527C6.74184 45.1424 6.63477 45.6689 6.63477 46.2008C6.63477 46.7327 6.74184 47.2592 6.94961 47.7489C7.15739 48.2385 7.46161 48.6814 7.84414 49.051C8.22668 49.4206 8.67971 49.7094 9.17622 49.9002C9.67274 50.0911 10.2026 50.18 10.7342 50.1617H27.5091C28.9723 50.1617 30.3755 50.743 31.4101 51.7775C32.4447 52.8121 33.0259 54.2154 33.0259 55.6785C33.0259 57.1416 32.4447 58.5448 31.4101 59.5794C30.3755 60.614 28.9723 61.1953 27.5091 61.1953H8.70343C8.86339 61.7344 9.19283 62.2076 9.64292 62.5448C10.093 62.8819 10.6398 63.065 11.2021 63.067H27.5279C28.5116 63.0917 29.4903 62.9194 30.4064 62.56C31.3225 62.2007 32.1575 61.6616 32.862 60.9746C33.5665 60.2876 34.1265 59.4665 34.5088 58.5598C34.8911 57.653 35.088 56.6789 35.088 55.6949C35.088 54.7108 34.8911 53.7367 34.5088 52.83C34.1265 51.9232 33.5665 51.1021 32.862 50.4151C32.1575 49.7281 31.3225 49.189 30.4064 48.8297C29.4903 48.4704 28.5116 48.298 27.5279 48.3228" fill="#FBBA00"/>
<path id="Vector_8" d="M10.7336 53.5867H27.5086C28.067 53.5867 28.6026 53.8085 28.9975 54.2034C29.3923 54.5983 29.6142 55.1339 29.6142 55.6924C29.6142 56.2508 29.3923 56.7864 28.9975 57.1813C28.6026 57.5761 28.067 57.798 27.5086 57.798H11.1875C10.6043 57.7983 10.0378 57.9924 9.57699 58.3499C9.1162 58.7073 8.7873 59.2078 8.64202 59.7726H27.5086C28.5907 59.7726 29.6285 59.3427 30.3937 58.5775C31.1589 57.8123 31.5888 56.7745 31.5888 55.6924C31.5888 54.6102 31.1589 53.5724 30.3937 52.8072C29.6285 52.042 28.5907 51.6121 27.5086 51.6121H10.7336C10.0114 51.6334 9.29235 51.5095 8.61892 51.2478C7.94548 50.9861 7.33141 50.592 6.81307 50.0886C6.29472 49.5853 5.88266 48.9831 5.60127 48.3177C5.31988 47.6523 5.17489 46.9371 5.17489 46.2146C5.17489 45.4921 5.31988 44.777 5.60127 44.1116C5.88266 43.4461 6.29472 42.8439 6.81307 42.3406C7.33141 41.8373 7.94548 41.4431 8.61892 41.1815C9.29235 40.9198 10.0114 40.7959 10.7336 40.8172H30.1336C29.9885 40.2531 29.6603 39.7532 29.2005 39.3959C28.7406 39.0385 28.1752 38.8439 27.5928 38.8425H10.7477C9.76392 38.8178 8.78516 38.9901 7.86906 39.3495C6.95296 39.7088 6.11804 40.2479 5.4135 40.9349C4.70896 41.6219 4.14905 42.443 3.76675 43.3497C3.38445 44.2565 3.1875 45.2306 3.1875 46.2146C3.1875 47.1987 3.38445 48.1728 3.76675 49.0795C4.14905 49.9863 4.70896 50.8074 5.4135 51.4944C6.11804 52.1814 6.95296 52.7205 7.86906 53.0798C8.78516 53.4391 9.76392 53.6115 10.7477 53.5867" fill="#EC6608"/>
<path id="Vector_9" d="M19.1198 7.74927C16.2738 7.74834 13.4915 8.59143 11.1247 10.1719C8.75787 11.7524 6.91293 13.9992 5.82318 16.6283C4.73343 19.2574 4.44781 22.1506 5.00247 24.942C5.55713 27.7334 6.92713 30.2976 8.93922 32.3104C10.9513 34.3231 13.5151 35.694 16.3063 36.2495C19.0976 36.8051 21.9908 36.5204 24.6203 35.4315C27.2497 34.3426 29.4972 32.4984 31.0784 30.1321C32.6597 27.7658 33.5036 24.9838 33.5036 22.1378C33.4987 18.3224 31.9805 14.6648 29.2822 11.9674C26.5839 9.26996 22.9258 7.75298 19.1104 7.74927H19.1198ZM19.1104 33.5083C16.8618 33.5073 14.6639 32.8397 12.7946 31.5897C10.9254 30.3398 9.46872 28.5636 8.60884 26.4858C7.74895 24.4081 7.52444 22.122 7.9637 19.9167C8.40296 17.7113 9.48627 15.6858 11.0766 14.096C12.667 12.5063 14.693 11.4238 16.8986 10.9855C19.1041 10.5471 21.3901 10.7726 23.4675 11.6333C25.5449 12.4941 27.3204 13.9514 28.5696 15.8212C29.8188 17.691 30.4856 19.8891 30.4856 22.1378C30.4874 23.6318 30.1948 25.1115 29.6245 26.4923C29.0542 27.8732 28.2174 29.1281 27.1618 30.1854C26.1063 31.2426 24.8528 32.0815 23.4729 32.6541C22.093 33.2267 20.6138 33.5217 19.1198 33.5223L19.1104 33.5083Z" fill="#FBBA00"/>
<path id="Vector_10" d="M19.118 3.64099C15.4596 3.64099 11.8835 4.72582 8.84166 6.75828C5.79987 8.79074 3.42908 11.6796 2.02909 15.0594C0.62911 18.4393 0.262808 22.1584 0.976514 25.7464C1.69022 29.3345 3.45188 32.6303 6.03871 35.2171C8.62555 37.804 11.9214 39.5656 15.5094 40.2793C19.0975 40.993 22.8166 40.6267 26.1964 39.2268C29.5763 37.8268 32.4651 35.456 34.4976 32.4142C36.53 29.3724 37.6148 25.7962 37.6148 22.1379C37.6148 17.2322 35.6661 12.5274 32.1972 9.0586C28.7284 5.58976 24.0236 3.64099 19.118 3.64099ZM19.118 37.9676C15.9871 37.9676 12.9266 37.0392 10.3234 35.2998C7.72026 33.5604 5.69133 31.0881 4.49321 28.1956C3.2951 25.3031 2.98162 22.1203 3.59241 19.0496C4.2032 15.979 5.71084 13.1584 7.92467 10.9446C10.1385 8.73073 12.9591 7.22309 16.0297 6.6123C19.1004 6.00151 22.2832 6.31499 25.1757 7.5131C28.0683 8.71122 30.5405 10.7402 32.2799 13.3433C34.0193 15.9465 34.9477 19.007 34.9477 22.1379C34.944 26.335 33.275 30.3592 30.3072 33.3271C27.3393 36.2949 23.3151 37.9639 19.118 37.9676Z" fill="#EC6608"/>
</g>
</svg>
